<svg xmlns="http://www.w3.org/2000/svg" xmlns:xlink="http://www.w3.org/1999/xlink" width="500" zoomAndPan="magnify" viewBox="0 0 375 374.999991" height="500" preserveAspectRatio="xMidYMid meet" version="1.0"><defs><g/></defs><g fill="#ac865a" fill-opacity="1"><g transform="translate(129.582147, 178.928967)"><g><path d="M 38.367188 -28.933594 L 38.367188 -27.394531 L 46.53125 -27.394531 L 46.53125 -1.90625 C 43.449219 -0.726562 39.367188 0.179688 34.832031 0.179688 C 20.679688 0.179688 10.25 -6.894531 10.25 -28.210938 C 10.25 -51.703125 25.214844 -56.507812 34.832031 -56.507812 C 45.535156 -56.507812 51.429688 -53.96875 51.429688 -53.96875 L 51.429688 -55.785156 C 51.429688 -55.785156 45.171875 -57.960938 34.832031 -57.960938 C 18.503906 -57.960938 3.628906 -49.253906 3.628906 -28.210938 C 3.628906 -3.992188 22.585938 1.722656 34.015625 1.722656 C 45.351562 1.722656 52.972656 -3.082031 52.972656 -3.082031 L 52.972656 -28.933594 Z M 38.367188 -28.933594 "/></g></g></g><g fill="#ac865a" fill-opacity="1"><g transform="translate(190.081248, 178.928967)"><g><path d="M 51.429688 -5.078125 C 51.429688 -5.078125 45.351562 0.179688 34.832031 0.179688 C 24.671875 0.179688 10.25 -4.355469 10.25 -28.210938 C 10.25 -51.703125 26.03125 -56.507812 34.832031 -56.507812 C 45.535156 -56.507812 51.429688 -52.246094 51.429688 -52.246094 L 51.429688 -54.242188 C 51.429688 -54.242188 45.171875 -57.960938 34.832031 -57.960938 C 18.503906 -57.960938 3.628906 -49.253906 3.628906 -28.210938 C 3.628906 -3.992188 22.585938 1.722656 34.015625 1.722656 C 45.351562 1.722656 51.429688 -3.082031 51.429688 -3.082031 Z M 51.429688 -5.078125 "/></g></g></g><g fill="#ac865a" fill-opacity="1"><g transform="translate(172.091477, 211.48339)"><g><path d="M 7.546875 -11.03125 L 7.546875 -9.6875 L 7.390625 -9.6875 L 7.390625 -9.921875 C 7.390625 -10.128906 7.3125 -10.3125 7.15625 -10.46875 C 7.007812 -10.625 6.828125 -10.703125 6.609375 -10.703125 L 3.234375 -10.703125 L 3.234375 -5.765625 L 5.9375 -5.765625 C 6.144531 -5.773438 6.320312 -5.851562 6.46875 -6 C 6.625 -6.144531 6.703125 -6.328125 6.703125 -6.546875 L 6.703125 -6.78125 L 6.859375 -6.78125 L 6.859375 -4.25 L 6.703125 -4.25 L 6.703125 -4.5 C 6.703125 -4.707031 6.628906 -4.882812 6.484375 -5.03125 C 6.335938 -5.1875 6.160156 -5.269531 5.953125 -5.28125 L 3.234375 -5.28125 L 3.234375 -1.171875 C 3.234375 -0.890625 3.332031 -0.648438 3.53125 -0.453125 C 3.738281 -0.253906 3.976562 -0.15625 4.25 -0.15625 L 4.46875 -0.15625 L 4.46875 0 L 0.953125 0 L 0.953125 -0.15625 L 1.171875 -0.15625 C 1.441406 -0.15625 1.675781 -0.253906 1.875 -0.453125 C 2.070312 -0.648438 2.175781 -0.890625 2.1875 -1.171875 L 2.1875 -10.125 C 2.1875 -10.382812 2.082031 -10.601562 1.875 -10.78125 C 1.664062 -10.957031 1.429688 -11.046875 1.171875 -11.046875 L 0.96875 -11.046875 L 0.953125 -11.203125 L 5.640625 -11.203125 C 5.972656 -11.203125 6.332031 -11.234375 6.71875 -11.296875 C 7.113281 -11.359375 7.390625 -11.421875 7.546875 -11.484375 Z M 7.546875 -11.03125 "/></g></g></g><g fill="#ac865a" fill-opacity="1"><g transform="translate(180.745396, 211.48339)"><g><path d="M 1.109375 -0.15625 C 1.390625 -0.15625 1.632812 -0.238281 1.84375 -0.40625 C 2.0625 -0.582031 2.171875 -0.789062 2.171875 -1.03125 L 2.171875 -8.578125 C 2.171875 -8.804688 2.0625 -9.003906 1.84375 -9.171875 C 1.632812 -9.347656 1.382812 -9.4375 1.09375 -9.4375 L 0.875 -9.4375 L 0.875 -9.59375 L 4.5 -9.59375 L 4.5 -9.4375 L 4.28125 -9.4375 C 4 -9.4375 3.753906 -9.351562 3.546875 -9.1875 C 3.335938 -9.03125 3.222656 -8.835938 3.203125 -8.609375 L 3.203125 -1.015625 C 3.210938 -0.773438 3.320312 -0.570312 3.53125 -0.40625 C 3.75 -0.238281 4 -0.15625 4.28125 -0.15625 L 4.5 -0.15625 L 4.515625 0 L 0.875 0 L 0.875 -0.15625 Z M 1.109375 -0.15625 "/></g></g></g><g fill="#ac865a" fill-opacity="1"><g transform="translate(186.120102, 211.48339)"><g><path d="M 11.625 -9.4375 C 11.394531 -9.4375 11.191406 -9.359375 11.015625 -9.203125 C 10.847656 -9.046875 10.757812 -8.859375 10.75 -8.640625 L 10.75 -1.828125 C 10.75 -1.203125 10.785156 -0.613281 10.859375 -0.0625 L 10.890625 0.21875 L 10.75 0.21875 L 2.4375 -7.65625 L 2.4375 -0.984375 C 2.4375 -0.753906 2.519531 -0.554688 2.6875 -0.390625 C 2.851562 -0.234375 3.0625 -0.15625 3.3125 -0.15625 L 3.578125 -0.15625 L 3.578125 0 L 0.5625 0 L 0.5625 -0.15625 L 0.828125 -0.15625 C 1.078125 -0.15625 1.285156 -0.234375 1.453125 -0.390625 C 1.628906 -0.554688 1.71875 -0.753906 1.71875 -0.984375 L 1.71875 -7.84375 C 1.71875 -8.488281 1.675781 -9.066406 1.59375 -9.578125 L 1.5625 -9.84375 L 1.75 -9.828125 L 10.046875 -2 L 10.046875 -8.640625 C 10.023438 -8.859375 9.925781 -9.046875 9.75 -9.203125 C 9.582031 -9.359375 9.382812 -9.4375 9.15625 -9.4375 L 8.875 -9.4375 L 8.875 -9.59375 L 11.90625 -9.59375 L 11.90625 -9.4375 Z M 11.625 -9.4375 "/></g></g></g><g fill="#ac865a" fill-opacity="1"><g transform="translate(198.581103, 211.48339)"><g><path d="M 10.5625 -0.15625 L 10.6875 -0.15625 L 10.6875 0 L 7.40625 0 L 7.40625 -0.15625 L 7.53125 -0.15625 C 7.738281 -0.15625 7.894531 -0.222656 8 -0.359375 C 8.101562 -0.503906 8.15625 -0.632812 8.15625 -0.75 C 8.15625 -0.875 8.132812 -1 8.09375 -1.125 L 7.21875 -3.25 L 3.171875 -3.25 L 2.28125 -1.171875 C 2.226562 -1.023438 2.203125 -0.890625 2.203125 -0.765625 C 2.203125 -0.648438 2.253906 -0.519531 2.359375 -0.375 C 2.472656 -0.226562 2.632812 -0.15625 2.84375 -0.15625 L 2.96875 -0.15625 L 2.96875 0 L -0.078125 0 L -0.078125 -0.15625 L 0.046875 -0.15625 C 0.273438 -0.15625 0.503906 -0.234375 0.734375 -0.390625 C 0.960938 -0.546875 1.148438 -0.78125 1.296875 -1.09375 C 3.628906 -6.082031 4.84375 -8.691406 4.9375 -8.921875 C 5.125 -9.367188 5.222656 -9.671875 5.234375 -9.828125 L 5.375 -9.828125 L 9.328125 -1.09375 C 9.640625 -0.46875 10.050781 -0.15625 10.5625 -0.15625 Z M 3.375 -3.734375 L 7.03125 -3.734375 L 5.234375 -8.109375 Z M 3.375 -3.734375 "/></g></g></g><g fill="#ac865a" fill-opacity="1"><g transform="translate(209.18656, 211.48339)"><g><path d="M 11.625 -9.4375 C 11.394531 -9.4375 11.191406 -9.359375 11.015625 -9.203125 C 10.847656 -9.046875 10.757812 -8.859375 10.75 -8.640625 L 10.75 -1.828125 C 10.75 -1.203125 10.785156 -0.613281 10.859375 -0.0625 L 10.890625 0.21875 L 10.75 0.21875 L 2.4375 -7.65625 L 2.4375 -0.984375 C 2.4375 -0.753906 2.519531 -0.554688 2.6875 -0.390625 C 2.851562 -0.234375 3.0625 -0.15625 3.3125 -0.15625 L 3.578125 -0.15625 L 3.578125 0 L 0.5625 0 L 0.5625 -0.15625 L 0.828125 -0.15625 C 1.078125 -0.15625 1.285156 -0.234375 1.453125 -0.390625 C 1.628906 -0.554688 1.71875 -0.753906 1.71875 -0.984375 L 1.71875 -7.84375 C 1.71875 -8.488281 1.675781 -9.066406 1.59375 -9.578125 L 1.5625 -9.84375 L 1.75 -9.828125 L 10.046875 -2 L 10.046875 -8.640625 C 10.023438 -8.859375 9.925781 -9.046875 9.75 -9.203125 C 9.582031 -9.359375 9.382812 -9.4375 9.15625 -9.4375 L 8.875 -9.4375 L 8.875 -9.59375 L 11.90625 -9.59375 L 11.90625 -9.4375 Z M 11.625 -9.4375 "/></g></g></g><g fill="#ac865a" fill-opacity="1"><g transform="translate(221.647561, 211.48339)"><g><path d="M 6.078125 0.21875 C 4.441406 0.207031 3.148438 -0.242188 2.203125 -1.140625 C 1.265625 -2.035156 0.796875 -3.257812 0.796875 -4.8125 C 0.796875 -6.363281 1.265625 -7.585938 2.203125 -8.484375 C 3.148438 -9.378906 4.441406 -9.828125 6.078125 -9.828125 C 6.742188 -9.828125 7.410156 -9.738281 8.078125 -9.5625 C 8.753906 -9.394531 9.335938 -9.160156 9.828125 -8.859375 L 10.171875 -6.59375 L 10.03125 -6.59375 C 9.570312 -8.425781 8.25 -9.34375 6.0625 -9.34375 C 4.789062 -9.34375 3.785156 -8.9375 3.046875 -8.125 C 2.316406 -7.3125 1.953125 -6.203125 1.953125 -4.796875 C 1.953125 -3.878906 2.113281 -3.082031 2.4375 -2.40625 C 2.769531 -1.726562 3.253906 -1.203125 3.890625 -0.828125 C 4.515625 -0.453125 5.242188 -0.265625 6.078125 -0.265625 C 6.910156 -0.265625 7.640625 -0.390625 8.265625 -0.640625 C 8.890625 -0.898438 9.40625 -1.316406 9.8125 -1.890625 C 10.226562 -2.460938 10.460938 -3.175781 10.515625 -4.03125 L 10.65625 -4.03125 L 10.484375 -1.84375 C 10.066406 -1.195312 9.460938 -0.691406 8.671875 -0.328125 C 7.878906 0.0351562 7.015625 0.21875 6.078125 0.21875 Z M 6.078125 0.21875 "/></g></g></g><g fill="#ac865a" fill-opacity="1"><g transform="translate(232.924855, 211.48339)"><g><path d="M 1.109375 -0.15625 C 1.359375 -0.15625 1.570312 -0.238281 1.75 -0.40625 C 1.925781 -0.570312 2.019531 -0.773438 2.03125 -1.015625 L 2.03125 -8.609375 C 2.03125 -8.835938 1.9375 -9.03125 1.75 -9.1875 C 1.570312 -9.351562 1.359375 -9.4375 1.109375 -9.4375 L 0.875 -9.4375 L 0.875 -9.59375 L 5.546875 -9.59375 C 5.984375 -9.59375 6.367188 -9.625 6.703125 -9.6875 C 7.035156 -9.757812 7.25 -9.816406 7.34375 -9.859375 L 7.34375 -8.03125 L 7.171875 -8.046875 L 7.171875 -8.28125 C 7.171875 -8.507812 7.09375 -8.703125 6.9375 -8.859375 C 6.789062 -9.023438 6.601562 -9.109375 6.375 -9.109375 L 3.046875 -9.109375 L 3.046875 -5.046875 L 5.78125 -5.046875 C 5.988281 -5.046875 6.148438 -5.109375 6.265625 -5.234375 C 6.378906 -5.359375 6.4375 -5.519531 6.4375 -5.71875 L 6.4375 -5.921875 L 6.609375 -5.921875 L 6.609375 -3.6875 L 6.4375 -3.6875 L 6.4375 -3.890625 C 6.4375 -4.191406 6.320312 -4.394531 6.09375 -4.5 C 6.007812 -4.53125 5.921875 -4.550781 5.828125 -4.5625 L 3.046875 -4.5625 L 3.046875 -0.5 L 5.546875 -0.5 C 6.035156 -0.5 6.445312 -0.582031 6.78125 -0.75 C 7.125 -0.925781 7.382812 -1.128906 7.5625 -1.359375 C 7.738281 -1.597656 7.914062 -1.90625 8.09375 -2.28125 L 8.25 -2.28125 L 7.375 0 L 0.875 0 L 0.875 -0.15625 Z M 1.109375 -0.15625 "/></g></g></g><path stroke-linecap="butt" transform="matrix(0.75, 0, 0, 0.75, 66.978823, 206.60839)" fill="none" stroke-linejoin="miter" d="M 0.00219393 1.001313 L 117.69491 1.001313 " stroke="#ac865a" stroke-width="2" stroke-opacity="1" stroke-miterlimit="4"/></svg>